<?xml version="1.0" encoding="UTF-8"?>
<svg xmlns="http://www.w3.org/2000/svg" width="1600" height="900" viewBox="0 0 1600 900" role="img" aria-label="ICE原糖指数周度季节性结构（牛市条件）">
<style>
text{font-family:-apple-system,BlinkMacSystemFont,'PingFang SC','Hiragino Sans GB','Microsoft YaHei',sans-serif;letter-spacing:0}
.grid{stroke:#e3e8ef;stroke-width:1}.minor{stroke:#edf1f6;stroke-width:1}
.axis{stroke:#b9c3d0;stroke-width:1.5}.line{fill:none;stroke-linecap:round;stroke-linejoin:round}
</style>
<rect width="1600" height="900" fill="#ffffff"/>
<text x="800.0" y="74.0" font-size="36" fill="#1f2933" text-anchor="middle" font-weight="680">ICE原糖指数周度季节性结构（牛市条件）</text>
<rect x="118" y="122" width="1427" height="626" rx="0" fill="#f8fafc" stroke="#b9c3d0" stroke-width="1.5"/>
<line class="grid" x1="118" y1="748.0" x2="1545" y2="748.0"/>
<text x="102.0" y="754.0" font-size="20" fill="#53606f" text-anchor="end" font-weight="400">5.00</text>
<line class="grid" x1="118" y1="591.5" x2="1545" y2="591.5"/>
<text x="102.0" y="597.5" font-size="20" fill="#53606f" text-anchor="end" font-weight="400">10.0</text>
<line class="grid" x1="118" y1="435.0" x2="1545" y2="435.0"/>
<text x="102.0" y="441.0" font-size="20" fill="#53606f" text-anchor="end" font-weight="400">15.0</text>
<line class="grid" x1="118" y1="278.5" x2="1545" y2="278.5"/>
<text x="102.0" y="284.5" font-size="20" fill="#53606f" text-anchor="end" font-weight="400">20.0</text>
<line class="grid" x1="118" y1="122.0" x2="1545" y2="122.0"/>
<text x="102.0" y="128.0" font-size="20" fill="#53606f" text-anchor="end" font-weight="400">25.0</text>
<line class="minor" x1="118.0" y1="122" x2="118.0" y2="748"/>
<text x="118.0" y="786.0" font-size="19" fill="#53606f" text-anchor="middle" font-weight="400">1</text>
<line class="minor" x1="229.9" y1="122" x2="229.9" y2="748"/>
<text x="229.9" y="786.0" font-size="19" fill="#53606f" text-anchor="middle" font-weight="400">5</text>
<line class="minor" x1="341.8" y1="122" x2="341.8" y2="748"/>
<text x="341.8" y="786.0" font-size="19" fill="#53606f" text-anchor="middle" font-weight="400">9</text>
<line class="minor" x1="453.8" y1="122" x2="453.8" y2="748"/>
<text x="453.8" y="786.0" font-size="19" fill="#53606f" text-anchor="middle" font-weight="400">13</text>
<line class="minor" x1="565.7" y1="122" x2="565.7" y2="748"/>
<text x="565.7" y="786.0" font-size="19" fill="#53606f" text-anchor="middle" font-weight="400">17</text>
<line class="minor" x1="677.6" y1="122" x2="677.6" y2="748"/>
<text x="677.6" y="786.0" font-size="19" fill="#53606f" text-anchor="middle" font-weight="400">21</text>
<line class="minor" x1="789.5" y1="122" x2="789.5" y2="748"/>
<text x="789.5" y="786.0" font-size="19" fill="#53606f" text-anchor="middle" font-weight="400">25</text>
<line class="minor" x1="901.5" y1="122" x2="901.5" y2="748"/>
<text x="901.5" y="786.0" font-size="19" fill="#53606f" text-anchor="middle" font-weight="400">29</text>
<line class="minor" x1="1013.4" y1="122" x2="1013.4" y2="748"/>
<text x="1013.4" y="786.0" font-size="19" fill="#53606f" text-anchor="middle" font-weight="400">33</text>
<line class="minor" x1="1125.3" y1="122" x2="1125.3" y2="748"/>
<text x="1125.3" y="786.0" font-size="19" fill="#53606f" text-anchor="middle" font-weight="400">37</text>
<line class="minor" x1="1237.2" y1="122" x2="1237.2" y2="748"/>
<text x="1237.2" y="786.0" font-size="19" fill="#53606f" text-anchor="middle" font-weight="400">41</text>
<line class="minor" x1="1349.1" y1="122" x2="1349.1" y2="748"/>
<text x="1349.1" y="786.0" font-size="19" fill="#53606f" text-anchor="middle" font-weight="400">45</text>
<line class="minor" x1="1461.1" y1="122" x2="1461.1" y2="748"/>
<text x="1461.1" y="786.0" font-size="19" fill="#53606f" text-anchor="middle" font-weight="400">49</text>
<text x="800.0" y="838.0" font-size="25" fill="#3f4a56" text-anchor="middle" font-weight="520">ISO周</text>
<polygon points="118.0,330.9 146.0,337.1 174.0,317.7 201.9,324.9 229.9,328.3 257.9,328.5 285.9,332.3 313.9,330.2 341.8,316.1 369.8,302.2 397.8,322.1 425.8,347.1 453.8,349.8 481.7,356.5 509.7,345.8 537.7,355.4 565.7,357.9 593.7,357.3 621.6,352.2 649.6,353.9 677.6,348.7 705.6,334.5 733.6,301.6 761.5,313.8 789.5,319.9 817.5,318.2 845.5,320.8 873.5,308.6 901.5,318.7 929.4,323.1 957.4,309.1 985.4,277.1 1013.4,261.5 1041.4,250.1 1069.3,254.1 1097.3,246.7 1125.3,231.7 1153.3,205.9 1181.3,198.5 1209.2,173.3 1237.2,181.6 1265.2,179.5 1293.2,167.3 1321.2,187.9 1349.1,175.4 1377.1,207.0 1405.1,189.3 1433.1,200.4 1461.1,205.6 1489.0,222.4 1517.0,235.7 1545.0,232.3 1545.0,473.2 1517.0,478.1 1489.0,485.3 1461.1,499.8 1433.1,516.1 1405.1,532.1 1377.1,533.4 1349.1,522.0 1321.2,538.7 1293.2,542.6 1265.2,541.6 1237.2,533.2 1209.2,503.2 1181.3,508.0 1153.3,521.4 1125.3,530.5 1097.3,523.0 1069.3,518.1 1041.4,514.5 1013.4,517.5 985.4,519.3 957.4,531.7 929.4,543.1 901.5,546.8 873.5,539.3 845.5,539.0 817.5,546.9 789.5,541.6 761.5,569.3 733.6,572.8 705.6,571.3 677.6,571.1 649.6,586.1 621.6,582.7 593.7,593.4 565.7,596.0 537.7,589.9 509.7,585.7 481.7,586.6 453.8,568.6 425.8,575.8 397.8,540.3 369.8,519.6 341.8,510.8 313.9,518.5 285.9,520.9 257.9,532.5 229.9,529.3 201.9,547.0 174.0,546.3 146.0,556.6 118.0,567.6" fill="#eb6f6f" opacity="0.18"/>
<path class="line" d="M 118.0 467.2 L 146.0 465.0 L 174.0 455.1 L 201.9 465.0 L 229.9 475.8 L 257.9 467.7 L 285.9 460.9 L 313.9 448.6 L 341.8 448.0 L 369.8 446.8 L 397.8 446.0 L 425.8 453.5 L 453.8 463.7 L 481.7 465.7 L 509.7 472.6 L 537.7 446.7 L 565.7 438.3 L 593.7 445.8 L 621.6 429.3 L 649.6 417.3 L 677.6 411.4 L 705.6 417.3 L 733.6 409.5 L 761.5 402.3 L 789.5 405.2 L 817.5 385.9 L 845.5 370.4 L 873.5 374.3 L 901.5 363.8 L 929.4 356.1 L 957.4 355.5 L 985.4 349.4 L 1013.4 344.9 L 1041.4 341.6 L 1069.3 334.9 L 1097.3 322.1 L 1125.3 320.0 L 1153.3 324.1 L 1181.3 327.1 L 1209.2 324.1 L 1237.2 312.8 L 1265.2 326.5 L 1293.2 329.7 L 1321.2 321.8 L 1349.1 305.8 L 1377.1 291.9 L 1405.1 311.8 L 1433.1 319.4 L 1461.1 313.8 L 1489.0 319.4 L 1517.0 329.6 L 1545.0 317.2" stroke="#66707c" stroke-width="4" stroke-dasharray="14 10"/>
<path class="line" d="M 118.0 323.9 L 146.0 326.7 L 174.0 352.5 L 201.9 353.3 L 229.9 331.5 L 257.9 323.7 L 285.9 312.0 L 313.9 291.9 L 341.8 301.2 L 369.8 340.0 L 397.8 315.6 L 425.8 291.4 L 453.8 307.0 L 481.7 307.8 L 509.7 337.8 L 537.7 348.9 L 565.7 342.1 L 593.7 357.4 L 621.6 355.7 L 649.6 343.6 L 677.6 355.4 L 705.6 365.0 L 733.6 374.3 L 761.5 381.7 L 789.5 387.6 L 817.5 388.7 L 845.5 392.8 L 873.5 383.4 L 901.5 377.8 L 929.4 385.1 L 957.4 384.3 L 985.4 391.7 L 1013.4 375.6 L 1041.4 382.7 L 1069.3 382.2 L 1097.3 396.3 L 1125.3 399.9 L 1153.3 402.4 L 1181.3 406.6 L 1209.2 396.4 L 1237.2 396.4 L 1265.2 419.6 L 1293.2 432.5 L 1321.2 457.6 L 1349.1 461.4 L 1377.1 456.1 L 1405.1 448.3 L 1433.1 437.8 L 1461.1 443.5 L 1489.0 442.4 L 1517.0 445.2 L 1545.0 433.3" stroke="#17202b" stroke-width="5"/>
<path class="line" d="M 118.0 438.9 L 146.0 442.2 L 174.0 444.8 L 201.9 445.2 L 229.9 449.8 L 257.9 461.4 L 285.9 471.8 L 313.9 471.0 L 341.8 460.9 L 369.8 464.6 L 397.8 447.7 L 425.8 431.1 L 453.8 404.8 L 481.7 417.9 L 509.7 448.8 L 537.7 468.8 L 565.7 467.4 L 593.7 442.4 L 621.6 425.3 L 649.6 422.3 L 677.6 428.0 L 705.6 444.5 L 733.6 443.0 L 761.5 455.3 L 789.5 457.1 L 817.5 459.9" stroke="#d9272e" stroke-width="6"/>
<rect x="122" y="126" width="1272" height="96" rx="6" fill="#ffffff" opacity="0.94" stroke="#d8dee8"/>
<rect x="134" y="146" width="36" height="16" fill="#eb6f6f" opacity="0.75"/>
<text x="184.0" y="162.0" font-size="22" fill="#2f3742" text-anchor="start" font-weight="430">牛市年份区间（20%-80%分位）</text>
<line x1="784" y1="155" x2="822" y2="155" stroke="#66707c" stroke-width="4" stroke-dasharray="9 6" stroke-linecap="round"/>
<text x="834.0" y="162.0" font-size="22" fill="#2f3742" text-anchor="start" font-weight="430">牛市年份中位数</text>
<line x1="134" y1="192" x2="172" y2="192" stroke="#17202b" stroke-width="5" stroke-linecap="round"/>
<text x="184.0" y="199.0" font-size="22" fill="#2f3742" text-anchor="start" font-weight="430">2025年</text>
<line x1="784" y1="192" x2="822" y2="192" stroke="#d9272e" stroke-width="5" stroke-linecap="round"/>
<text x="834.0" y="199.0" font-size="22" fill="#2f3742" text-anchor="start" font-weight="430">2026年</text>
<text x="118.0" y="882.0" font-size="21" fill="#53606f" text-anchor="start" font-weight="400">最新周频数据：2026-06-26，ISO第26周，原糖指数=14.21</text>
</svg>