<?xml version="1.0" encoding="UTF-8"?>
<svg xmlns="http://www.w3.org/2000/svg" width="1600" height="900" viewBox="0 0 1600 900" role="img" aria-label="ICE原糖指数周度季节性结构（全样本：2004-2025）">
<style>
text{font-family:-apple-system,BlinkMacSystemFont,'PingFang SC','Hiragino Sans GB','Microsoft YaHei',sans-serif;letter-spacing:0}
.grid{stroke:#e3e8ef;stroke-width:1}.minor{stroke:#edf1f6;stroke-width:1}
.axis{stroke:#b9c3d0;stroke-width:1.5}.line{fill:none;stroke-linecap:round;stroke-linejoin:round}
</style>
<rect width="1600" height="900" fill="#ffffff"/>
<text x="800.0" y="74.0" font-size="36" fill="#1f2933" text-anchor="middle" font-weight="680">ICE原糖指数周度季节性结构（全样本：2004-2025）</text>
<rect x="118" y="122" width="1427" height="626" rx="0" fill="#f8fafc" stroke="#b9c3d0" stroke-width="1.5"/>
<line class="grid" x1="118" y1="748.0" x2="1545" y2="748.0"/>
<text x="102.0" y="754.0" font-size="20" fill="#53606f" text-anchor="end" font-weight="400">10.0</text>
<line class="grid" x1="118" y1="539.3" x2="1545" y2="539.3"/>
<text x="102.0" y="545.3" font-size="20" fill="#53606f" text-anchor="end" font-weight="400">15.0</text>
<line class="grid" x1="118" y1="330.7" x2="1545" y2="330.7"/>
<text x="102.0" y="336.7" font-size="20" fill="#53606f" text-anchor="end" font-weight="400">20.0</text>
<line class="grid" x1="118" y1="122.0" x2="1545" y2="122.0"/>
<text x="102.0" y="128.0" font-size="20" fill="#53606f" text-anchor="end" font-weight="400">25.0</text>
<line class="minor" x1="118.0" y1="122" x2="118.0" y2="748"/>
<text x="118.0" y="786.0" font-size="19" fill="#53606f" text-anchor="middle" font-weight="400">1</text>
<line class="minor" x1="229.9" y1="122" x2="229.9" y2="748"/>
<text x="229.9" y="786.0" font-size="19" fill="#53606f" text-anchor="middle" font-weight="400">5</text>
<line class="minor" x1="341.8" y1="122" x2="341.8" y2="748"/>
<text x="341.8" y="786.0" font-size="19" fill="#53606f" text-anchor="middle" font-weight="400">9</text>
<line class="minor" x1="453.8" y1="122" x2="453.8" y2="748"/>
<text x="453.8" y="786.0" font-size="19" fill="#53606f" text-anchor="middle" font-weight="400">13</text>
<line class="minor" x1="565.7" y1="122" x2="565.7" y2="748"/>
<text x="565.7" y="786.0" font-size="19" fill="#53606f" text-anchor="middle" font-weight="400">17</text>
<line class="minor" x1="677.6" y1="122" x2="677.6" y2="748"/>
<text x="677.6" y="786.0" font-size="19" fill="#53606f" text-anchor="middle" font-weight="400">21</text>
<line class="minor" x1="789.5" y1="122" x2="789.5" y2="748"/>
<text x="789.5" y="786.0" font-size="19" fill="#53606f" text-anchor="middle" font-weight="400">25</text>
<line class="minor" x1="901.5" y1="122" x2="901.5" y2="748"/>
<text x="901.5" y="786.0" font-size="19" fill="#53606f" text-anchor="middle" font-weight="400">29</text>
<line class="minor" x1="1013.4" y1="122" x2="1013.4" y2="748"/>
<text x="1013.4" y="786.0" font-size="19" fill="#53606f" text-anchor="middle" font-weight="400">33</text>
<line class="minor" x1="1125.3" y1="122" x2="1125.3" y2="748"/>
<text x="1125.3" y="786.0" font-size="19" fill="#53606f" text-anchor="middle" font-weight="400">37</text>
<line class="minor" x1="1237.2" y1="122" x2="1237.2" y2="748"/>
<text x="1237.2" y="786.0" font-size="19" fill="#53606f" text-anchor="middle" font-weight="400">41</text>
<line class="minor" x1="1349.1" y1="122" x2="1349.1" y2="748"/>
<text x="1349.1" y="786.0" font-size="19" fill="#53606f" text-anchor="middle" font-weight="400">45</text>
<line class="minor" x1="1461.1" y1="122" x2="1461.1" y2="748"/>
<text x="1461.1" y="786.0" font-size="19" fill="#53606f" text-anchor="middle" font-weight="400">49</text>
<text x="800.0" y="838.0" font-size="25" fill="#3f4a56" text-anchor="middle" font-weight="520">ISO周</text>
<polygon points="118.0,334.1 146.0,330.0 174.0,329.9 201.9,325.8 229.9,314.7 257.9,309.4 285.9,321.5 313.9,322.6 341.8,332.5 369.8,349.7 397.8,375.6 425.8,350.9 453.8,361.1 481.7,347.9 509.7,342.1 537.7,362.6 565.7,379.9 593.7,386.5 621.6,390.4 649.6,393.1 677.6,398.9 705.6,401.8 733.6,364.7 761.5,373.4 789.5,376.9 817.5,353.4 845.5,339.0 873.5,354.7 901.5,371.0 929.4,398.6 957.4,378.1 985.4,335.7 1013.4,330.7 1041.4,327.0 1069.3,326.5 1097.3,344.8 1125.3,303.8 1153.3,290.5 1181.3,241.7 1209.2,227.6 1237.2,242.5 1265.2,242.8 1293.2,247.0 1321.2,280.9 1349.1,274.7 1377.1,311.5 1405.1,310.7 1433.1,324.8 1461.1,325.0 1489.0,335.3 1517.0,343.3 1545.0,355.1 1545.0,637.3 1517.0,636.4 1489.0,625.9 1461.1,628.9 1433.1,641.4 1405.1,661.1 1377.1,662.8 1349.1,644.2 1321.2,667.7 1293.2,665.3 1265.2,663.2 1237.2,662.5 1209.2,650.0 1181.3,699.7 1153.3,676.3 1125.3,671.1 1097.3,684.3 1069.3,692.4 1041.4,693.9 1013.4,688.5 985.4,684.3 957.4,668.3 929.4,666.6 901.5,666.3 873.5,651.5 845.5,649.4 817.5,658.7 789.5,654.7 761.5,655.7 733.6,671.4 705.6,692.1 677.6,677.4 649.6,669.8 621.6,671.2 593.7,662.8 565.7,674.9 537.7,654.8 509.7,648.3 481.7,656.7 453.8,647.9 425.8,646.9 397.8,632.8 369.8,615.9 341.8,602.9 313.9,605.7 285.9,619.7 257.9,625.5 229.9,626.3 201.9,631.0 174.0,647.9 146.0,645.1 118.0,662.0" fill="#4169e1" opacity="0.18"/>
<path class="line" d="M 118.0 531.6 L 146.0 533.6 L 174.0 518.6 L 201.9 514.2 L 229.9 518.7 L 257.9 496.8 L 285.9 493.3 L 313.9 466.9 L 341.8 485.1 L 369.8 487.2 L 397.8 493.7 L 425.8 476.8 L 453.8 475.7 L 481.7 505.6 L 509.7 485.8 L 537.7 470.6 L 565.7 493.9 L 593.7 492.2 L 621.6 487.0 L 649.6 472.9 L 677.6 485.2 L 705.6 497.6 L 733.6 505.3 L 761.5 495.7 L 789.5 497.5 L 817.5 483.3 L 845.5 469.7 L 873.5 472.6 L 901.5 470.8 L 929.4 472.2 L 957.4 461.9 L 985.4 469.3 L 1013.4 461.4 L 1041.4 470.2 L 1069.3 471.1 L 1097.3 481.2 L 1125.3 497.4 L 1153.3 513.3 L 1181.3 506.0 L 1209.2 481.6 L 1237.2 471.8 L 1265.2 490.3 L 1293.2 503.9 L 1321.2 518.8 L 1349.1 522.9 L 1377.1 509.1 L 1405.1 511.5 L 1433.1 510.9 L 1461.1 526.1 L 1489.0 533.3 L 1517.0 543.7 L 1545.0 536.5" stroke="#66707c" stroke-width="4" stroke-dasharray="14 10"/>
<path class="line" d="M 118.0 391.2 L 146.0 394.9 L 174.0 429.3 L 201.9 430.4 L 229.9 401.3 L 257.9 390.9 L 285.9 375.4 L 313.9 348.5 L 341.8 360.9 L 369.8 412.7 L 397.8 380.1 L 425.8 347.8 L 453.8 368.7 L 481.7 369.7 L 509.7 409.7 L 537.7 424.5 L 565.7 415.5 L 593.7 435.9 L 621.6 433.6 L 649.6 417.5 L 677.6 433.1 L 705.6 446.0 L 733.6 458.4 L 761.5 468.3 L 789.5 476.1 L 817.5 477.6 L 845.5 483.1 L 873.5 470.5 L 901.5 463.0 L 929.4 472.8 L 957.4 471.8 L 985.4 481.6 L 1013.4 460.1 L 1041.4 469.6 L 1069.3 468.9 L 1097.3 487.8 L 1125.3 492.5 L 1153.3 495.9 L 1181.3 501.5 L 1209.2 487.8 L 1237.2 487.9 L 1265.2 518.8 L 1293.2 536.0 L 1321.2 569.5 L 1349.1 574.6 L 1377.1 567.5 L 1405.1 557.0 L 1433.1 543.1 L 1461.1 550.7 L 1489.0 549.2 L 1517.0 553.0 L 1545.0 537.0" stroke="#17202b" stroke-width="5"/>
<path class="line" d="M 118.0 544.5 L 146.0 549.0 L 174.0 552.4 L 201.9 553.0 L 229.9 559.0 L 257.9 574.5 L 285.9 588.4 L 313.9 587.3 L 341.8 573.8 L 369.8 578.8 L 397.8 556.3 L 425.8 534.1 L 453.8 499.0 L 481.7 516.6 L 509.7 557.7 L 537.7 584.5 L 565.7 582.6 L 593.7 549.2 L 621.6 526.5 L 649.6 522.4 L 677.6 529.9 L 705.6 552.0 L 733.6 550.0 L 761.5 566.4 L 789.5 568.8 L 817.5 572.5" stroke="#d9272e" stroke-width="6"/>
<path class="line" d="M 817.5 572.5 L 845.5 568.7 L 873.5 568.9 L 901.5 569.4 L 929.4 569.3" stroke="#ee841e" stroke-width="6" stroke-dasharray="20 13"/>
<rect x="122" y="126" width="1272" height="133" rx="6" fill="#ffffff" opacity="0.94" stroke="#d8dee8"/>
<rect x="134" y="146" width="36" height="16" fill="#4169e1" opacity="0.75"/>
<text x="184.0" y="162.0" font-size="22" fill="#2f3742" text-anchor="start" font-weight="430">22年历史区间（2004-2025，20%-80%分位）</text>
<line x1="784" y1="155" x2="822" y2="155" stroke="#66707c" stroke-width="4" stroke-dasharray="9 6" stroke-linecap="round"/>
<text x="834.0" y="162.0" font-size="22" fill="#2f3742" text-anchor="start" font-weight="430">22年历史中位数</text>
<line x1="134" y1="192" x2="172" y2="192" stroke="#17202b" stroke-width="5" stroke-linecap="round"/>
<text x="184.0" y="199.0" font-size="22" fill="#2f3742" text-anchor="start" font-weight="430">2025年</text>
<line x1="784" y1="192" x2="822" y2="192" stroke="#d9272e" stroke-width="5" stroke-linecap="round"/>
<text x="834.0" y="199.0" font-size="22" fill="#2f3742" text-anchor="start" font-weight="430">2026年</text>
<line x1="134" y1="229" x2="172" y2="229" stroke="#ee841e" stroke-width="4" stroke-dasharray="9 6" stroke-linecap="round"/>
<text x="184.0" y="236.0" font-size="22" fill="#2f3742" text-anchor="start" font-weight="430">多模型集成未来4周预测</text>
<text x="118.0" y="882.0" font-size="21" fill="#53606f" text-anchor="start" font-weight="400">最新周频数据：2026-06-26，ISO第26周，原糖指数=14.21；多模型集成未来4周预测从第26周延伸至第30周</text>
</svg>