<?xml version="1.0" encoding="UTF-8"?>
<svg xmlns="http://www.w3.org/2000/svg" width="1600" height="900" viewBox="0 0 1600 900" role="img" aria-label="ICE原糖指数周度季节性结构（熊市条件）">
<style>
text{font-family:-apple-system,BlinkMacSystemFont,'PingFang SC','Hiragino Sans GB','Microsoft YaHei',sans-serif;letter-spacing:0}
.grid{stroke:#e3e8ef;stroke-width:1}.minor{stroke:#edf1f6;stroke-width:1}
.axis{stroke:#b9c3d0;stroke-width:1.5}.line{fill:none;stroke-linecap:round;stroke-linejoin:round}
</style>
<rect width="1600" height="900" fill="#ffffff"/>
<text x="800.0" y="74.0" font-size="36" fill="#1f2933" text-anchor="middle" font-weight="680">ICE原糖指数周度季节性结构（熊市条件）</text>
<rect x="118" y="122" width="1427" height="626" rx="0" fill="#f8fafc" stroke="#b9c3d0" stroke-width="1.5"/>
<line class="grid" x1="118" y1="748.0" x2="1545" y2="748.0"/>
<text x="102.0" y="754.0" font-size="20" fill="#53606f" text-anchor="end" font-weight="400">10.0</text>
<line class="grid" x1="118" y1="539.3" x2="1545" y2="539.3"/>
<text x="102.0" y="545.3" font-size="20" fill="#53606f" text-anchor="end" font-weight="400">15.0</text>
<line class="grid" x1="118" y1="330.7" x2="1545" y2="330.7"/>
<text x="102.0" y="336.7" font-size="20" fill="#53606f" text-anchor="end" font-weight="400">20.0</text>
<line class="grid" x1="118" y1="122.0" x2="1545" y2="122.0"/>
<text x="102.0" y="128.0" font-size="20" fill="#53606f" text-anchor="end" font-weight="400">25.0</text>
<line class="minor" x1="118.0" y1="122" x2="118.0" y2="748"/>
<text x="118.0" y="786.0" font-size="19" fill="#53606f" text-anchor="middle" font-weight="400">1</text>
<line class="minor" x1="229.9" y1="122" x2="229.9" y2="748"/>
<text x="229.9" y="786.0" font-size="19" fill="#53606f" text-anchor="middle" font-weight="400">5</text>
<line class="minor" x1="341.8" y1="122" x2="341.8" y2="748"/>
<text x="341.8" y="786.0" font-size="19" fill="#53606f" text-anchor="middle" font-weight="400">9</text>
<line class="minor" x1="453.8" y1="122" x2="453.8" y2="748"/>
<text x="453.8" y="786.0" font-size="19" fill="#53606f" text-anchor="middle" font-weight="400">13</text>
<line class="minor" x1="565.7" y1="122" x2="565.7" y2="748"/>
<text x="565.7" y="786.0" font-size="19" fill="#53606f" text-anchor="middle" font-weight="400">17</text>
<line class="minor" x1="677.6" y1="122" x2="677.6" y2="748"/>
<text x="677.6" y="786.0" font-size="19" fill="#53606f" text-anchor="middle" font-weight="400">21</text>
<line class="minor" x1="789.5" y1="122" x2="789.5" y2="748"/>
<text x="789.5" y="786.0" font-size="19" fill="#53606f" text-anchor="middle" font-weight="400">25</text>
<line class="minor" x1="901.5" y1="122" x2="901.5" y2="748"/>
<text x="901.5" y="786.0" font-size="19" fill="#53606f" text-anchor="middle" font-weight="400">29</text>
<line class="minor" x1="1013.4" y1="122" x2="1013.4" y2="748"/>
<text x="1013.4" y="786.0" font-size="19" fill="#53606f" text-anchor="middle" font-weight="400">33</text>
<line class="minor" x1="1125.3" y1="122" x2="1125.3" y2="748"/>
<text x="1125.3" y="786.0" font-size="19" fill="#53606f" text-anchor="middle" font-weight="400">37</text>
<line class="minor" x1="1237.2" y1="122" x2="1237.2" y2="748"/>
<text x="1237.2" y="786.0" font-size="19" fill="#53606f" text-anchor="middle" font-weight="400">41</text>
<line class="minor" x1="1349.1" y1="122" x2="1349.1" y2="748"/>
<text x="1349.1" y="786.0" font-size="19" fill="#53606f" text-anchor="middle" font-weight="400">45</text>
<line class="minor" x1="1461.1" y1="122" x2="1461.1" y2="748"/>
<text x="1461.1" y="786.0" font-size="19" fill="#53606f" text-anchor="middle" font-weight="400">49</text>
<text x="800.0" y="838.0" font-size="25" fill="#3f4a56" text-anchor="middle" font-weight="520">ISO周</text>
<polygon points="118.0,306.7 146.0,286.5 174.0,253.9 201.9,222.4 229.9,223.1 257.9,216.8 285.9,236.8 313.9,256.6 341.8,265.7 369.8,310.1 397.8,281.2 425.8,278.9 453.8,274.3 481.7,270.9 509.7,315.9 537.7,362.6 565.7,362.9 593.7,368.4 621.6,363.2 649.6,393.1 677.6,398.9 705.6,402.9 733.6,384.9 761.5,383.3 789.5,379.2 817.5,353.4 845.5,339.0 873.5,361.2 901.5,377.3 929.4,409.5 957.4,399.0 985.4,416.4 1013.4,416.8 1041.4,429.4 1069.3,380.5 1097.3,386.3 1125.3,391.5 1153.3,355.7 1181.3,341.0 1209.2,295.0 1237.2,311.3 1265.2,338.7 1293.2,350.6 1321.2,362.8 1349.1,371.7 1377.1,373.0 1405.1,361.3 1433.1,375.5 1461.1,371.5 1489.0,394.9 1517.0,397.0 1545.0,407.9 1545.0,637.3 1517.0,636.4 1489.0,625.9 1461.1,628.9 1433.1,632.8 1405.1,634.9 1377.1,632.2 1349.1,634.8 1321.2,635.0 1293.2,637.3 1265.2,633.9 1237.2,637.4 1209.2,650.0 1181.3,699.7 1153.3,676.3 1125.3,671.1 1097.3,684.3 1069.3,692.4 1041.4,693.9 1013.4,688.5 985.4,684.3 957.4,666.4 929.4,663.8 901.5,650.5 873.5,632.5 845.5,630.9 817.5,647.1 789.5,648.6 761.5,637.9 733.6,641.2 705.6,643.3 677.6,636.6 649.6,648.0 621.6,647.1 593.7,634.3 565.7,626.5 537.7,623.2 509.7,627.0 481.7,636.4 453.8,631.4 425.8,622.5 397.8,618.9 369.8,603.3 341.8,594.8 313.9,590.1 285.9,589.4 257.9,578.0 229.9,577.9 201.9,586.6 174.0,581.2 146.0,555.6 118.0,554.8" fill="#3cb371" opacity="0.18"/>
<path class="line" d="M 118.0 435.8 L 146.0 446.5 L 174.0 469.4 L 201.9 429.9 L 229.9 402.7 L 257.9 400.3 L 285.9 418.7 L 313.9 418.1 L 341.8 412.7 L 369.8 408.9 L 397.8 409.2 L 425.8 434.9 L 453.8 422.4 L 481.7 424.2 L 509.7 447.7 L 537.7 436.5 L 565.7 436.0 L 593.7 430.2 L 621.6 430.9 L 649.6 450.2 L 677.6 466.0 L 705.6 482.9 L 733.6 494.8 L 761.5 502.5 L 789.5 492.5 L 817.5 484.9 L 845.5 473.6 L 873.5 476.8 L 901.5 496.3 L 929.4 501.5 L 957.4 505.7 L 985.4 526.6 L 1013.4 528.8 L 1041.4 523.7 L 1069.3 519.9 L 1097.3 526.5 L 1125.3 528.8 L 1153.3 545.8 L 1181.3 547.3 L 1209.2 528.2 L 1237.2 527.4 L 1265.2 546.3 L 1293.2 552.3 L 1321.2 560.2 L 1349.1 549.3 L 1377.1 546.0 L 1405.1 540.9 L 1433.1 538.6 L 1461.1 542.3 L 1489.0 550.0 L 1517.0 556.2 L 1545.0 540.8" stroke="#66707c" stroke-width="4" stroke-dasharray="14 10"/>
<path class="line" d="M 118.0 391.2 L 146.0 394.9 L 174.0 429.3 L 201.9 430.4 L 229.9 401.3 L 257.9 390.9 L 285.9 375.4 L 313.9 348.5 L 341.8 360.9 L 369.8 412.7 L 397.8 380.1 L 425.8 347.8 L 453.8 368.7 L 481.7 369.7 L 509.7 409.7 L 537.7 424.5 L 565.7 415.5 L 593.7 435.9 L 621.6 433.6 L 649.6 417.5 L 677.6 433.1 L 705.6 446.0 L 733.6 458.4 L 761.5 468.3 L 789.5 476.1 L 817.5 477.6 L 845.5 483.1 L 873.5 470.5 L 901.5 463.0 L 929.4 472.8 L 957.4 471.8 L 985.4 481.6 L 1013.4 460.1 L 1041.4 469.6 L 1069.3 468.9 L 1097.3 487.8 L 1125.3 492.5 L 1153.3 495.9 L 1181.3 501.5 L 1209.2 487.8 L 1237.2 487.9 L 1265.2 518.8 L 1293.2 536.0 L 1321.2 569.5 L 1349.1 574.6 L 1377.1 567.5 L 1405.1 557.0 L 1433.1 543.1 L 1461.1 550.7 L 1489.0 549.2 L 1517.0 553.0 L 1545.0 537.0" stroke="#17202b" stroke-width="5"/>
<path class="line" d="M 118.0 544.5 L 146.0 549.0 L 174.0 552.4 L 201.9 553.0 L 229.9 559.0 L 257.9 574.5 L 285.9 588.4 L 313.9 587.3 L 341.8 573.8 L 369.8 578.8 L 397.8 556.3 L 425.8 534.1 L 453.8 499.0 L 481.7 516.6 L 509.7 557.7 L 537.7 584.5 L 565.7 582.6 L 593.7 549.2 L 621.6 526.5 L 649.6 522.4 L 677.6 529.9 L 705.6 552.0 L 733.6 550.0 L 761.5 566.4 L 789.5 568.8 L 817.5 572.5" stroke="#d9272e" stroke-width="6"/>
<rect x="122" y="126" width="1272" height="96" rx="6" fill="#ffffff" opacity="0.94" stroke="#d8dee8"/>
<rect x="134" y="146" width="36" height="16" fill="#3cb371" opacity="0.75"/>
<text x="184.0" y="162.0" font-size="22" fill="#2f3742" text-anchor="start" font-weight="430">熊市年份区间（20%-80%分位）</text>
<line x1="784" y1="155" x2="822" y2="155" stroke="#66707c" stroke-width="4" stroke-dasharray="9 6" stroke-linecap="round"/>
<text x="834.0" y="162.0" font-size="22" fill="#2f3742" text-anchor="start" font-weight="430">熊市年份中位数</text>
<line x1="134" y1="192" x2="172" y2="192" stroke="#17202b" stroke-width="5" stroke-linecap="round"/>
<text x="184.0" y="199.0" font-size="22" fill="#2f3742" text-anchor="start" font-weight="430">2025年</text>
<line x1="784" y1="192" x2="822" y2="192" stroke="#d9272e" stroke-width="5" stroke-linecap="round"/>
<text x="834.0" y="199.0" font-size="22" fill="#2f3742" text-anchor="start" font-weight="430">2026年</text>
<text x="118.0" y="882.0" font-size="21" fill="#53606f" text-anchor="start" font-weight="400">最新周频数据：2026-06-26，ISO第26周，原糖指数=14.21</text>
</svg>